<mxfile host="app.diagrams.net" modified="2023-05-29T04:22:02.620Z" agent="Mozilla/5.0 (Windows NT 10.0; Win64; x64) AppleWebKit/537.36 (KHTML, like Gecko) Chrome/113.0.0.0 Safari/537.36 Edg/113.0.1774.57" version="21.3.4" etag="8r0hpiFVN-OXPLr-fvez" type="github">
  <diagram name="PÃ¡gina-1" id="sM1PDMNkeONeqyQqFlqv">
    <mxGraphModel>
      <root>
        <mxCell id="0" />
        <mxCell id="1" parent="0" />
      </root>
    </mxGraphModel>
  </diagram>
</mxfile>
